<?xml version="1.0" encoding="utf-8"?>
<!-- Generator: Adobe Illustrator 24.1.3, SVG Export Plug-In . SVG Version: 6.00 Build 0)  -->
<svg version="1.1" id="Layer_1" xmlns="http://www.w3.org/2000/svg" xmlns:xlink="http://www.w3.org/1999/xlink" x="0px" y="0px"
	 viewBox="0 0 250 100" style="enable-background:new 0 0 250 100;" xml:space="preserve">
<style type="text/css">
	.trend{fill:none;stroke:#F8CAB9;stroke-width:4;stroke-linecap:round;stroke-linejoin:round;stroke-miterlimit:10;}
	.sample{fill:#F6B8A2;}
</style>
<g>
	<g>
		<path class="trend" d="M27,47.4c7.4,7.5,37.1,32.4,82.7,34.1C154.6,83,197.5,58.1,222,17.1"/>
		<polyline class="trend" points="210.7,17.1 224.3,15.4 225.5,29.9 		"/>
	</g>
	<g>
		<circle class="sample" cx="31.2" cy="41.4" r="2.5"/>
		<circle class="sample" cx="27" cy="56.5" r="2.5"/>
		<circle class="sample" cx="35.3" cy="51.2" r="2.5"/>
		<circle class="sample" cx="38.6" cy="61.7" r="2.5"/>
		<circle class="sample" cx="46" cy="58.1" r="2.5"/>
		<circle class="sample" cx="53.1" cy="54.5" r="2.5"/>
		<circle class="sample" cx="63.1" cy="67.7" r="2.5"/>
		<circle class="sample" cx="58.1" cy="78.9" r="2.5"/>
		<circle class="sample" cx="70.1" cy="68.5" r="2.5"/>
		<circle class="sample" cx="76.1" cy="76.4" r="2.5"/>
		<circle class="sample" cx="87.4" cy="73.9" r="2.5"/>
		<circle class="sample" cx="93.7" cy="86.9" r="2.5"/>
		<circle class="sample" cx="82.4" cy="85.8" r="2.5"/>
		<circle class="sample" cx="101.7" cy="78.9" r="2.5"/>
		<circle class="sample" cx="108.5" cy="84.4" r="2.5"/>
		<circle class="sample" cx="115.6" cy="89.9" r="2.5"/>
		<circle class="sample" cx="120.6" cy="73.9" r="2.5"/>
		<circle class="sample" cx="127" cy="65.6" r="2.5"/>
		<circle class="sample" cx="134.5" cy="83.3" r="2.5"/>
		<circle class="sample" cx="141.2" cy="90" r="2.5"/>
		<circle class="sample" cx="146.2" cy="73.9" r="2.5"/>
		<circle class="sample" cx="153.6" cy="84.4" r="2.5"/>
		<circle class="sample" cx="160.3" cy="68.5" r="2.5"/>
		<circle class="sample" cx="165.3" cy="66.7" r="2.5"/>
		<circle class="sample" cx="182.6" cy="57" r="2.5"/>
		<circle class="sample" cx="171" cy="58.1" r="2.5"/>
		<circle class="sample" cx="177.6" cy="66.7" r="2.5"/>
		<circle class="sample" cx="188.6" cy="48.7" r="2.5"/>
		<circle class="sample" cx="195.1" cy="57" r="2.5"/>
		<circle class="sample" cx="200.8" cy="43.9" r="2.5"/>
		<circle class="sample" cx="205.7" cy="31.3" r="2.5"/>
		<circle class="sample" cx="211.3" cy="25.4" r="2.5"/>
		<circle class="sample" cx="218.1" cy="28.8" r="2.5"/>
		<circle class="sample" cx="221.5" cy="10" r="2.5"/>
	</g>
</g>
<circle class="sample" cx="154.1" cy="78.2" r="2.5"/>
</svg>
