<?xml version="1.0" encoding="utf-8"?>
<!-- Generator: Adobe Illustrator 24.1.3, SVG Export Plug-In . SVG Version: 6.00 Build 0)  -->
<svg version="1.1" id="Layer_1" xmlns="http://www.w3.org/2000/svg" xmlns:xlink="http://www.w3.org/1999/xlink" x="0px" y="0px"
	 viewBox="0 0 200 100" style="enable-background:new 0 0 200 100;" xml:space="preserve">
<style type="text/css">
	.base{fill:#20E9B2;}
	.snp1{fill:#E95420;}
	.backbone{fill:none;stroke:#20E9B2;stroke-width:7;stroke-linecap:round;stroke-miterlimit:10;}
	.snp2{fill:#A33E16;}
	.snp3{fill:#FFD7C8;}
</style>
<g>
	<g>
		<rect x="81.1" y="55.5" class="base" width="37.9" height="1.8"/>
		<rect x="80.6" y="50.8" class="snp1" width="38.8" height="1.8"/>
		<rect x="80.6" y="46.2" class="base" width="38.8" height="1.8"/>
		<rect x="84.8" y="41.7" class="base" width="31.1" height="1.8"/>
		<rect x="84.5" y="60.2" class="base" width="31.1" height="1.8"/>
		<rect x="84.5" y="37.2" class="base" width="31.1" height="1.8"/>
		<rect x="84.5" y="64.9" class="base" width="31.1" height="1.8"/>
	</g>
	<g>
		<path class="backbone" d="M87.7,14v3.3c0,1.9,0.6,3.8,1.7,5.4c2.1,3,4.4,4.9,6.2,6.1c2.4,1.6,3,1.4,9.4,4.7c4.6,2.4,6.9,3.6,9,5.4
			c1.3,1.2,2.4,2.4,3.3,3.5c1.6,2.1,2.4,4.5,2.4,7.1v2.7"/>
		<path class="backbone" d="M112.3,14v3.3c0,1.9-0.6,3.8-1.7,5.4c-2.1,3-4.4,4.9-6.2,6.1c-2.4,1.6-3,1.4-9.4,4.7c-4.6,2.4-6.9,3.6-9,5.4
			c-1.3,1.2-2.4,2.4-3.3,3.5c-1.6,2.1-2.4,4.5-2.4,7.1v2.7"/>
		<path class="backbone" d="M80.3,52.2v3.3c0,1.9,0.6,3.8,1.7,5.4c2.1,3,4.4,4.9,6.2,6.1c2.4,1.6,3,1.4,9.4,4.7c4.6,2.4,6.9,3.6,9,5.4
			c1.3,1.2,2.4,2.4,3.3,3.5c1.6,2.1,2.4,4.5,2.4,7.1v2.7"/>
		<path class="backbone" d="M119.7,52.2v3.3c0,1.9-0.6,3.8-1.7,5.4c-2.1,3-4.4,4.9-6.2,6.1c-2.4,1.6-3,1.4-9.4,4.7
			c-4.6,2.4-6.9,3.6-9,5.4c-1.3,1.2-2.4,2.4-3.3,3.5c-1.6,2.1-2.4,4.5-2.4,7.1v2.7"/>
	</g>
</g>
<g>
	<g>
		<rect x="142.1" y="56.7" class="base" width="37.9" height="1.8"/>
		<rect x="141.7" y="52" class="snp2" width="38.8" height="1.8"/>
		<rect x="141.7" y="47.4" class="base" width="38.8" height="1.8"/>
		<rect x="145.8" y="42.9" class="base" width="31.1" height="1.8"/>
		<rect x="145.5" y="61.4" class="base" width="31.1" height="1.8"/>
		<rect x="145.5" y="38.3" class="base" width="31.1" height="1.8"/>
		<rect x="145.5" y="66.1" class="base" width="31.1" height="1.8"/>
	</g>
	<g>
		<path class="backbone" d="M148.7,15.2v3.3c0,1.9,0.6,3.8,1.7,5.4c2.1,3,4.4,4.9,6.2,6.1c2.4,1.6,3,1.4,9.4,4.7c4.6,2.4,6.9,3.6,9,5.4
			c1.3,1.2,2.4,2.4,3.3,3.5c1.6,2.1,2.4,4.5,2.4,7.1v2.7"/>
		<path class="backbone" d="M173.4,15.2v3.3c0,1.9-0.6,3.8-1.7,5.4c-2.1,3-4.4,4.9-6.2,6.1c-2.4,1.6-3,1.4-9.4,4.7
			c-4.6,2.4-6.9,3.6-9,5.4c-1.3,1.2-2.4,2.4-3.3,3.5c-1.6,2.1-2.4,4.5-2.4,7.1v2.7"/>
		<path class="backbone" d="M141.4,53.4v3.3c0,1.9,0.6,3.8,1.7,5.4c2.1,3,4.4,4.9,6.2,6.1c2.4,1.6,3,1.4,9.4,4.7c4.6,2.4,6.9,3.6,9,5.4
			c1.3,1.2,2.4,2.4,3.3,3.5c1.6,2.1,2.4,4.5,2.4,7.1v2.7"/>
		<path class="backbone" d="M180.8,53.4v3.3c0,1.9-0.6,3.8-1.7,5.4c-2.1,3-4.4,4.9-6.2,6.1c-2.4,1.6-3,1.4-9.4,4.7
			c-4.6,2.4-6.9,3.6-9,5.4c-1.3,1.2-2.4,2.4-3.3,3.5c-1.6,2.1-2.4,4.5-2.4,7.1v2.7"/>
	</g>
</g>
<g>
	<g>
		<rect x="20" y="56.2" class="base" width="37.9" height="1.8"/>
		<rect x="19.5" y="51.5" class="snp3" width="38.8" height="1.8"/>
		<rect x="19.5" y="46.9" class="base" width="38.8" height="1.8"/>
		<rect x="23.7" y="42.4" class="base" width="31.1" height="1.8"/>
		<rect x="23.4" y="60.9" class="base" width="31.1" height="1.8"/>
		<rect x="23.4" y="37.8" class="base" width="31.1" height="1.8"/>
		<rect x="23.4" y="65.6" class="base" width="31.1" height="1.8"/>
	</g>
	<g>
		<path class="backbone" d="M26.6,14.7V18c0,1.9,0.6,3.8,1.7,5.4c2.1,3,4.4,4.9,6.2,6.1c2.4,1.6,3,1.4,9.4,4.7c4.6,2.4,6.9,3.6,9,5.4
			c1.3,1.2,2.4,2.4,3.3,3.5c1.6,2.1,2.4,4.5,2.4,7.1v2.7"/>
		<path class="backbone" d="M51.3,14.7V18c0,1.9-0.6,3.8-1.7,5.4c-2.1,3-4.4,4.9-6.2,6.1c-2.4,1.6-3,1.4-9.4,4.7c-4.6,2.4-6.9,3.6-9,5.4
			c-1.3,1.2-2.4,2.4-3.3,3.5c-1.6,2.1-2.4,4.5-2.4,7.1v2.7"/>
		<path class="backbone" d="M19.2,52.9v3.3c0,1.9,0.6,3.8,1.7,5.4c2.1,3,4.4,4.9,6.2,6.1c2.4,1.6,3,1.4,9.4,4.7c4.6,2.4,6.9,3.6,9,5.4
			c1.3,1.2,2.4,2.4,3.3,3.5c1.6,2.1,2.4,4.5,2.4,7.1v2.7"/>
		<path class="backbone" d="M58.6,52.9v3.3c0,1.9-0.6,3.8-1.7,5.4c-2.1,3-4.4,4.9-6.2,6.1c-2.4,1.6-3,1.4-9.4,4.7c-4.6,2.4-6.9,3.6-9,5.4
			c-1.3,1.2-2.4,2.4-3.3,3.5c-1.6,2.1-2.4,4.5-2.4,7.1v2.7"/>
	</g>
</g>
</svg>
