<?xml version="1.0" encoding="utf-8"?>
<!-- Generator: Adobe Illustrator 24.1.3, SVG Export Plug-In . SVG Version: 6.00 Build 0)  -->
<svg version="1.1" id="Layer_1" xmlns="http://www.w3.org/2000/svg" xmlns:xlink="http://www.w3.org/1999/xlink" x="0px" y="0px"
	 viewBox="0 0 250 100" style="enable-background:new 0 0 250 100;" xml:space="preserve">
<style type="text/css">
	.trajectory{fill:none;stroke:#F8CAB9;stroke-width:4;stroke-linecap:round;stroke-linejoin:round;stroke-miterlimit:10;}
	.sample{fill:#F6B8A2;}
</style>
<g>
	<g>
		<polyline class="trajectory" points="42.9,64.7 96.9,34.7 158.1,45 209.2,76.1 		"/>
		<line class="trajectory" x1="158.1" y1="45" x2="202.6" y2="22.8"/>
	</g>
	<g>
		<circle class="sample" cx="31.7" cy="78.1" r="2.5"/>
		<circle class="sample" cx="43.7" cy="71.1" r="2.5"/>
		<circle class="sample" cx="47.9" cy="59.7" r="2.5"/>
		<circle class="sample" cx="35.9" cy="66.8" r="2.5"/>
		<circle class="sample" cx="40.4" cy="60.7" r="2.5"/>
		<circle class="sample" cx="24.6" cy="67.8" r="2.5"/>
		<circle class="sample" cx="30" cy="59" r="2.5"/>
		<circle class="sample" cx="43.7" cy="51.2" r="2.5"/>
		<circle class="sample" cx="55" cy="51.2" r="2.5"/>
		<circle class="sample" cx="57.5" cy="71.1" r="2.5"/>
		<circle class="sample" cx="82.2" cy="30.8" r="2.5"/>
		<circle class="sample" cx="82.2" cy="47.5" r="2.5"/>
		<circle class="sample" cx="75.9" cy="38.7" r="2.5"/>
		<circle class="sample" cx="84.7" cy="38.7" r="2.5"/>
		<circle class="sample" cx="96.9" cy="39.7" r="2.5"/>
		<circle class="sample" cx="91.9" cy="23.9" r="2.5"/>
		<circle class="sample" cx="90.7" cy="32.2" r="2.5"/>
		<circle class="sample" cx="93.2" cy="47.5" r="2.5"/>
		<circle class="sample" cx="71.8" cy="52.5" r="2.5"/>
		<circle class="sample" cx="101.9" cy="28.3" r="2.5"/>
		<circle class="sample" cx="117.8" cy="34.7" r="2.5"/>
		<circle class="sample" cx="111.8" cy="23.9" r="2.5"/>
		<circle class="sample" cx="109.3" cy="45" r="2.5"/>
		<circle class="sample" cx="141.4" cy="42.2" r="2.5"/>
		<circle class="sample" cx="145.3" cy="51.2" r="2.5"/>
		<circle class="sample" cx="148.9" cy="37.2" r="2.5"/>
		<circle class="sample" cx="151.4" cy="45" r="2.5"/>
		<circle class="sample" cx="166" cy="41.2" r="2.5"/>
		<circle class="sample" cx="153.9" cy="58.2" r="2.5"/>
		<circle class="sample" cx="156.4" cy="27.2" r="2.5"/>
		<circle class="sample" cx="128.4" cy="28.3" r="2.5"/>
		<circle class="sample" cx="161.4" cy="52.5" r="2.5"/>
		<circle class="sample" cx="171" cy="64.7" r="2.5"/>
		<circle class="sample" cx="173.5" cy="50" r="2.5"/>
		<circle class="sample" cx="190.2" cy="18.9" r="2.5"/>
		<circle class="sample" cx="183.5" cy="30.8" r="2.5"/>
		<circle class="sample" cx="212.7" cy="28.3" r="2.5"/>
		<circle class="sample" cx="198.2" cy="20.3" r="2.5"/>
		<circle class="sample" cx="204.2" cy="11.9" r="2.5"/>
		<circle class="sample" cx="215.2" cy="15.3" r="2.5"/>
		<circle class="sample" cx="209.2" cy="20.3" r="2.5"/>
		<circle class="sample" cx="195.2" cy="33.3" r="2.5"/>
		<circle class="sample" cx="191.5" cy="73.6" r="2.5"/>
		<circle class="sample" cx="187.7" cy="59.7" r="2.5"/>
		<circle class="sample" cx="187.7" cy="67.2" r="2.5"/>
		<circle class="sample" cx="206.7" cy="70.3" r="2.5"/>
		<circle class="sample" cx="214.2" cy="60.7" r="2.5"/>
		<circle class="sample" cx="206.7" cy="83.1" r="2.5"/>
		<circle class="sample" cx="216.7" cy="75.6" r="2.5"/>
		<circle class="sample" cx="225.4" cy="88.1" r="2.5"/>
		<circle class="sample" cx="198.2" cy="64.3" r="2.5"/>
		<circle class="sample" cx="212.7" cy="67.8" r="2.5"/>
	</g>
</g>
</svg>
