<?xml version="1.0" encoding="utf-8"?>
<!-- Generator: Adobe Illustrator 24.1.3, SVG Export Plug-In . SVG Version: 6.00 Build 0)  -->
<svg version="1.1" id="Layer_1" xmlns="http://www.w3.org/2000/svg" xmlns:xlink="http://www.w3.org/1999/xlink" x="0px" y="0px"
	 viewBox="0 0 100 100" style="enable-background:new 0 0 100 100;" xml:space="preserve">
<style type="text/css">
	.x-axis{fill:none;stroke:#20E9B2;stroke-width:1.7083;stroke-linecap:round;stroke-miterlimit:10;}
	.bar{fill:none;stroke:#20E9B2;stroke-width:4.2706;stroke-linecap:round;stroke-miterlimit:10;}
</style>
<g>
	<g>
		<line class="x-axis" x1="13" y1="30.7" x2="86.8" y2="30.7"/>
		<g>
			<line class="bar" x1="17" y1="26.1" x2="17" y2="27.2"/>
			<line class="bar" x1="21.5" y1="16.6" x2="21.5" y2="27.2"/>
			<line class="bar" x1="26.1" y1="27.2" x2="26.1" y2="27.2"/>
			<line class="bar" x1="30.7" y1="23.8" x2="30.7" y2="27.2"/>
			<line class="bar" x1="44.1" y1="26.1" x2="44.1" y2="27.2"/>
			<line class="bar" x1="48.7" y1="20.5" x2="48.7" y2="27.2"/>
			<line class="bar" x1="53.3" y1="22.4" x2="53.3" y2="27.2"/>
			<line class="bar" x1="64.6" y1="27.1" x2="64.6" y2="27.2"/>
			<line class="bar" x1="69.2" y1="25.4" x2="69.2" y2="27.2"/>
			<line class="bar" x1="73.8" y1="18.7" x2="73.8" y2="27.2"/>
			<line class="bar" x1="78.3" y1="15" x2="78.3" y2="27.2"/>
			<line class="bar" x1="82.9" y1="25.4" x2="82.9" y2="27.2"/>
		</g>
	</g>
	<g>
		<line class="x-axis" x1="13.2" y1="57.3" x2="87" y2="57.3"/>
		<g>
			<line class="bar" x1="17.1" y1="52.7" x2="17.1" y2="53.8"/>
			<line class="bar" x1="21.7" y1="45.8" x2="21.7" y2="53.8"/>
			<line class="bar" x1="26.2" y1="53.8" x2="26.2" y2="53.8"/>
			<line class="bar" x1="30.8" y1="51.4" x2="30.8" y2="53.8"/>
			<line class="bar" x1="44.3" y1="52.7" x2="44.3" y2="53.8"/>
			<line class="bar" x1="48.8" y1="43.2" x2="48.8" y2="53.8"/>
			<line class="bar" x1="53.4" y1="46.6" x2="53.4" y2="53.8"/>
			<line class="bar" x1="64.8" y1="53.6" x2="64.8" y2="53.8"/>
			<line class="bar" x1="69.3" y1="52" x2="69.3" y2="53.8"/>
			<line class="bar" x1="73.9" y1="51.4" x2="73.9" y2="53.8"/>
			<line class="bar" x1="78.5" y1="52" x2="78.5" y2="53.8"/>
			<line class="bar" x1="83" y1="53.6" x2="83" y2="53.8"/>
		</g>
	</g>
	<g>
		<line class="x-axis" x1="13.2" y1="85" x2="87" y2="85"/>
		<g>
			<line class="bar" x1="17.1" y1="78.7" x2="17.1" y2="81.3"/>
			<line class="bar" x1="21.7" y1="70.9" x2="21.7" y2="81.5"/>
			<line class="bar" x1="26.2" y1="81.5" x2="26.2" y2="81.5"/>
			<line class="bar" x1="30.8" y1="78.1" x2="30.8" y2="81.5"/>
			<line class="bar" x1="44.3" y1="81.3" x2="44.3" y2="81.5"/>
			<line class="bar" x1="48.8" y1="78.1" x2="48.8" y2="81.5"/>
			<line class="bar" x1="53.4" y1="80.9" x2="53.4" y2="81.5"/>
			<line class="bar" x1="64.8" y1="81.2" x2="64.8" y2="81.5"/>
			<line class="bar" x1="69.3" y1="79.6" x2="69.3" y2="81.5"/>
			<line class="bar" x1="73.9" y1="74.7" x2="73.9" y2="81.5"/>
			<line class="bar" x1="78.5" y1="72.4" x2="78.5" y2="81.5"/>
			<line class="bar" x1="83" y1="77" x2="83" y2="81"/>
		</g>
	</g>
</g>
</svg>
