<?xml version="1.0" encoding="utf-8"?>
<!-- Generator: Adobe Illustrator 24.1.3, SVG Export Plug-In . SVG Version: 6.00 Build 0)  -->
<svg version="1.1" id="Layer_1" xmlns="http://www.w3.org/2000/svg" xmlns:xlink="http://www.w3.org/1999/xlink" x="0px" y="0px"
	 viewBox="0 0 250 100" style="enable-background:new 0 0 250 100;" xml:space="preserve">
<style type="text/css">
	.nonsig{fill:#EA8862;}
	.sig{fill:#F3BBA5;}
</style>
<g>
	<circle class="nonsig" cx="120.4" cy="88.8" r="2.5"/>
	<circle class="nonsig" cx="114.7" cy="85.2" r="2.5"/>
	<circle class="nonsig" cx="118.8" cy="86.3" r="2.5"/>
	<circle class="nonsig" cx="117.9" cy="82.7" r="2.5"/>
	<circle class="nonsig" cx="116.3" cy="79.5" r="2.5"/>
	<circle class="nonsig" cx="119.7" cy="79.5" r="2.5"/>
	<circle class="nonsig" cx="121.3" cy="83.8" r="2.5"/>
	<circle class="nonsig" cx="110.5" cy="80.2" r="2.5"/>
	<circle class="nonsig" cx="117.2" cy="74.5" r="2.5"/>
	<circle class="nonsig" cx="120.4" cy="70.5" r="2.5"/>
	<circle class="nonsig" cx="113.8" cy="76.6" r="2.5"/>
	<circle class="nonsig" cx="116.3" cy="72" r="2.5"/>
	<circle class="nonsig" cx="112.2" cy="73" r="2.5"/>
	<circle class="nonsig" cx="109.7" cy="75.5" r="2.5"/>
	<circle class="nonsig" cx="99.7" cy="79.5" r="2.5"/>
	<circle class="nonsig" cx="107.2" cy="71.6" r="2.5"/>
	<circle class="nonsig" cx="98" cy="74.1" r="2.5"/>
	<circle class="nonsig" cx="111.3" cy="69.5" r="2.5"/>
	<circle class="nonsig" cx="116.3" cy="65.5" r="2.5"/>
	<circle class="nonsig" cx="104.7" cy="75.5" r="2.5"/>
	<circle class="sig" cx="99.7" cy="64.5" r="2.5"/>
	<circle class="sig" cx="102.2" cy="69.5" r="2.5"/>
	<circle class="nonsig" cx="109.2" cy="67" r="2.5"/>
	<circle class="nonsig" cx="108" cy="57.3" r="2.5"/>
	<circle class="sig" cx="81" cy="64.5" r="2.5"/>
	<circle class="nonsig" cx="110.5" cy="62" r="2.5"/>
	<circle class="nonsig" cx="114.7" cy="60.5" r="2.5"/>
	<circle class="sig" cx="104.7" cy="64.5" r="2.5"/>
	<circle class="nonsig" cx="147.4" cy="75.5" r="2.5"/>
	<circle class="nonsig" cx="118.8" cy="63" r="2.5"/>
	<circle class="nonsig" cx="113" cy="51.6" r="2.5"/>
	<circle class="sig" cx="98" cy="56.6" r="2.5"/>
	<circle class="sig" cx="88.9" cy="69.1" r="2.5"/>
	<circle class="sig" cx="93.9" cy="28.1" r="2.5"/>
	<circle class="sig" cx="72.7" cy="49.1" r="2.5"/>
	<circle class="sig" cx="86.4" cy="51.3" r="2.5"/>
	<circle class="sig" cx="89.5" cy="60.5" r="2.5"/>
	<circle class="sig" cx="103" cy="53" r="2.5"/>
	<circle class="nonsig" cx="137.2" cy="53" r="2.5"/>
	<circle class="sig" cx="98.9" cy="42.7" r="2.5"/>
	<circle class="sig" cx="105.5" cy="34.5" r="2.5"/>
	<circle class="sig" cx="97.2" cy="34.5" r="2.5"/>
	<circle class="sig" cx="81.4" cy="40.2" r="2.5"/>
	<circle class="nonsig" cx="108.8" cy="49.1" r="2.5"/>
	<circle class="sig" cx="96.4" cy="50.5" r="2.5"/>
	<circle class="sig" cx="86.4" cy="32" r="2.5"/>
	<circle class="sig" cx="94.7" cy="41.4" r="2.5"/>
	<circle class="sig" cx="97.2" cy="18.4" r="2.5"/>
	<circle class="sig" cx="70.2" cy="37.7" r="2.5"/>
	<circle class="sig" cx="78.9" cy="18.9" r="2.5"/>
	<circle class="sig" cx="53.9" cy="49.1" r="2.5"/>
	<circle class="nonsig" cx="151.8" cy="73" r="2.5"/>
	<circle class="nonsig" cx="113.8" cy="57.3" r="2.5"/>
	<circle class="sig" cx="97.2" cy="69.1" r="2.5"/>
	<circle class="nonsig" cx="92.2" cy="75.5" r="2.5"/>
	<circle class="sig" cx="62.7" cy="28.1" r="2.5"/>
	<circle class="sig" cx="70.2" cy="56.3" r="2.5"/>
	<circle class="sig" cx="33.6" cy="37" r="2.5"/>
	<circle class="sig" cx="51.4" cy="21.4" r="2.5"/>
	<circle class="sig" cx="105.5" cy="60" r="2.5"/>
	<circle class="sig" cx="105.5" cy="45.9" r="2.5"/>
	<circle class="sig" cx="88" cy="56.6" r="2.5"/>
	<circle class="sig" cx="94.7" cy="60.5" r="2.5"/>
	<circle class="sig" cx="88" cy="45.2" r="2.5"/>
	<circle class="sig" cx="57.7" cy="56.3" r="2.5"/>
	<circle class="sig" cx="78.5" cy="59.1" r="2.5"/>
	<circle class="sig" cx="79.7" cy="50.5" r="2.5"/>
	<circle class="sig" cx="57.7" cy="37" r="2.5"/>
	<circle class="nonsig" cx="142.4" cy="75.7" r="2.5"/>
	<circle class="nonsig" cx="105.5" cy="79.5" r="2.5"/>
	<circle class="nonsig" cx="129.7" cy="65.9" r="2.5"/>
	<circle class="nonsig" cx="122.2" cy="76.6" r="2.5"/>
	<circle class="nonsig" cx="123" cy="82" r="2.5"/>
	<circle class="nonsig" cx="124.7" cy="90.2" r="2.5"/>
	<circle class="nonsig" cx="123.8" cy="87.7" r="2.5"/>
	<circle class="nonsig" cx="126.3" cy="87.7" r="2.5"/>
	<circle class="nonsig" cx="127.2" cy="83.4" r="2.5"/>
	<circle class="nonsig" cx="128" cy="79.5" r="2.5"/>
	<circle class="nonsig" cx="127.2" cy="75.7" r="2.5"/>
	<circle class="nonsig" cx="124.7" cy="79.5" r="2.5"/>
	<circle class="nonsig" cx="131.4" cy="78" r="2.5"/>
	<circle class="nonsig" cx="131.4" cy="83.8" r="2.5"/>
	<circle class="nonsig" cx="128" cy="89.6" r="2.5"/>
	<circle class="nonsig" cx="120.5" cy="89.6" r="2.5"/>
	<circle class="nonsig" cx="138.1" cy="77" r="2.5"/>
	<circle class="nonsig" cx="133.9" cy="73.2" r="2.5"/>
	<circle class="nonsig" cx="135.6" cy="80.5" r="2.5"/>
	<circle class="nonsig" cx="138.1" cy="70.5" r="2.5"/>
	<circle class="sig" cx="141.6" cy="71.6" r="2.5"/>
	<circle class="nonsig" cx="138.1" cy="75.5" r="2.5"/>
	<circle class="nonsig" cx="129.7" cy="74.1" r="2.5"/>
	<circle class="nonsig" cx="133.1" cy="68.8" r="2.5"/>
	<circle class="nonsig" cx="125.5" cy="70.7" r="2.5"/>
	<circle class="sig" cx="158.8" cy="71.3" r="2.5"/>
	<circle class="sig" cx="76.4" cy="30.6" r="2.5"/>
	<circle class="nonsig" cx="134.7" cy="64.1" r="2.5"/>
	<circle class="sig" cx="143.1" cy="62" r="2.5"/>
	<circle class="nonsig" cx="133.9" cy="83.6" r="2.5"/>
	<circle class="nonsig" cx="131.4" cy="60.5" r="2.5"/>
	<circle class="nonsig" cx="138" cy="65.9" r="2.5"/>
	<circle class="sig" cx="148.1" cy="62" r="2.5"/>
	<circle class="sig" cx="207.6" cy="48" r="2.5"/>
	<circle class="nonsig" cx="136.4" cy="57.3" r="2.5"/>
	<circle class="sig" cx="145.6" cy="53" r="2.5"/>
	<circle class="sig" cx="144.9" cy="65.9" r="2.5"/>
	<circle class="nonsig" cx="140.5" cy="79.5" r="2.5"/>
	<circle class="sig" cx="151.8" cy="68.2" r="2.5"/>
	<circle class="sig" cx="141.6" cy="62.5" r="2.5"/>
	<circle class="sig" cx="145.6" cy="70.5" r="2.5"/>
	<circle class="sig" cx="190.2" cy="19.9" r="2.5"/>
	<circle class="sig" cx="157.9" cy="54.8" r="2.5"/>
	<circle class="sig" cx="157.9" cy="49.1" r="2.5"/>
	<circle class="sig" cx="149.3" cy="46.6" r="2.5"/>
	<circle class="sig" cx="140.6" cy="59.1" r="2.5"/>
	<circle class="sig" cx="140.5" cy="49.1" r="2.5"/>
	<circle class="sig" cx="154.3" cy="60.5" r="2.5"/>
	<circle class="sig" cx="151.8" cy="56.6" r="2.5"/>
	<circle class="sig" cx="146.8" cy="56.6" r="2.5"/>
	<circle class="sig" cx="165.8" cy="59.1" r="2.5"/>
	<circle class="sig" cx="158.8" cy="64.1" r="2.5"/>
	<circle class="sig" cx="172.7" cy="9.8" r="2.5"/>
	<circle class="sig" cx="150.6" cy="31.3" r="2.5"/>
	<circle class="sig" cx="144.3" cy="44.1" r="2.5"/>
	<circle class="sig" cx="154.3" cy="43.4" r="2.5"/>
	<circle class="sig" cx="150.6" cy="53" r="2.5"/>
	<circle class="sig" cx="164.4" cy="46.6" r="2.5"/>
	<circle class="sig" cx="160.4" cy="36.3" r="2.5"/>
	<circle class="sig" cx="150.6" cy="38.8" r="2.5"/>
	<circle class="sig" cx="170.9" cy="42.7" r="2.5"/>
	<circle class="sig" cx="186" cy="51.3" r="2.5"/>
	<circle class="sig" cx="169.4" cy="53.8" r="2.5"/>
	<circle class="sig" cx="165.8" cy="68" r="2.5"/>
	<circle class="sig" cx="216.4" cy="31.3" r="2.5"/>
	<circle class="sig" cx="182.6" cy="62.5" r="2.5"/>
	<circle class="sig" cx="173.4" cy="36.3" r="2.5"/>
	<circle class="sig" cx="164.4" cy="27" r="2.5"/>
	<circle class="sig" cx="177.7" cy="48.8" r="2.5"/>
	<circle class="sig" cx="175.2" cy="65.9" r="2.5"/>
	<circle class="sig" cx="183.5" cy="33.1" r="2.5"/>
	<circle class="sig" cx="176.7" cy="19.9" r="2.5"/>
	<circle class="sig" cx="196.1" cy="40.2" r="2.5"/>
	<circle class="sig" cx="156.3" cy="19.9" r="2.5"/>
	<circle class="sig" cx="195.2" cy="56.3" r="2.5"/>
	<circle class="sig" cx="203.6" cy="21.4" r="2.5"/>
	<circle class="sig" cx="75.2" cy="11.3" r="2.5"/>
</g>
</svg>
