<?xml version="1.0" encoding="utf-8"?>
<!-- Generator: Adobe Illustrator 24.1.3, SVG Export Plug-In . SVG Version: 6.00 Build 0)  -->
<svg version="1.1" id="Layer_1" xmlns="http://www.w3.org/2000/svg" xmlns:xlink="http://www.w3.org/1999/xlink" x="0px" y="0px"
	 viewBox="0 0 200 100" style="enable-background:new 0 0 200 100;" xml:space="preserve">
<style type="text/css">
	.color1{fill:#BA3F12;stroke:#FFD7C8;stroke-miterlimit:10;}
	.color2{fill:#E95420;stroke:#FFD7C8;stroke-miterlimit:10;}
	.color3{fill:#E84F17;stroke:#FFD7C8;stroke-miterlimit:10;}
	.color4{fill:#ED7245;stroke:#FFD7C8;stroke-miterlimit:10;}
	.color5{fill:#F19574;stroke:#FFD7C8;stroke-miterlimit:10;}
	.dendro{fill:none;stroke:#E84F17;stroke-linecap:round;stroke-linejoin:round;stroke-miterlimit:10;}
</style>
<g>
	<g>
		<rect x="26.2" y="27.9" class="color1" width="12.7" height="7.4"/>
		<rect x="38.9" y="27.9" class="color2" width="12.7" height="7.4"/>
		<rect x="51.6" y="27.9" class="color1" width="12.7" height="7.4"/>
		<rect x="64.4" y="27.9" class="color3" width="12.7" height="7.4"/>
		<rect x="77.1" y="27.9" class="color1" width="12.7" height="7.4"/>
		<rect x="89.9" y="27.9" class="color1" width="12.7" height="7.4"/>
		<rect x="102.6" y="27.9" class="color4" width="12.7" height="7.4"/>
		<rect x="115.4" y="27.9" class="color4" width="12.7" height="7.4"/>
		<rect x="128.1" y="27.9" class="color4" width="12.7" height="7.4"/>
		<rect x="140.8" y="27.9" class="color1" width="12.7" height="7.4"/>
		<rect x="26.2" y="35.3" class="color1" width="12.7" height="7.4"/>
		<rect x="38.9" y="35.3" class="color4" width="12.7" height="7.4"/>
		<rect x="51.6" y="35.3" class="color5" width="12.7" height="7.4"/>
		<rect x="64.4" y="35.3" class="color4" width="12.7" height="7.4"/>
		<rect x="77.1" y="35.3" class="color1" width="12.7" height="7.4"/>
		<rect x="89.9" y="35.3" class="color2" width="12.7" height="7.4"/>
		<rect x="102.6" y="35.3" class="color1" width="12.7" height="7.4"/>
		<rect x="115.4" y="35.3" class="color1" width="12.7" height="7.4"/>
		<rect x="128.1" y="35.3" class="color2" width="12.7" height="7.4"/>
		<rect x="140.8" y="35.3" class="color1" width="12.7" height="7.4"/>
		<rect x="26.2" y="42.6" class="color2" width="12.7" height="7.4"/>
		<rect x="38.9" y="42.6" class="color4" width="12.7" height="7.4"/>
		<rect x="51.6" y="42.6" class="color4" width="12.7" height="7.4"/>
		<rect x="64.4" y="42.6" class="color4" width="12.7" height="7.4"/>
		<rect x="77.1" y="42.6" class="color5" width="12.7" height="7.4"/>
		<rect x="89.9" y="42.6" class="color1" width="12.7" height="7.4"/>
		<rect x="102.6" y="42.6" class="color5" width="12.7" height="7.4"/>
		<rect x="115.4" y="42.6" class="color5" width="12.7" height="7.4"/>
		<rect x="128.1" y="42.6" class="color1" width="12.7" height="7.4"/>
		<rect x="140.8" y="42.6" class="color2" width="12.7" height="7.4"/>
		<rect x="26.2" y="50" class="color2" width="12.7" height="7.4"/>
		<rect x="38.9" y="50" class="color1" width="12.7" height="7.4"/>
		<rect x="51.6" y="50" class="color1" width="12.7" height="7.4"/>
		<rect x="64.4" y="50" class="color4" width="12.7" height="7.4"/>
		<rect x="77.1" y="50" class="color4" width="12.7" height="7.4"/>
		<rect x="89.9" y="50" class="color2" width="12.7" height="7.4"/>
		<rect x="102.6" y="50" class="color4" width="12.7" height="7.4"/>
		<rect x="115.4" y="50" class="color5" width="12.7" height="7.4"/>
		<rect x="128.1" y="50" class="color2" width="12.7" height="7.4"/>
		<rect x="140.8" y="50" class="color1" width="12.7" height="7.4"/>
		<rect x="26.2" y="57.4" class="color4" width="12.7" height="7.4"/>
		<rect x="38.9" y="57.4" class="color5" width="12.7" height="7.4"/>
		<rect x="51.6" y="57.4" class="color4" width="12.7" height="7.4"/>
		<rect x="64.4" y="57.4" class="color4" width="12.7" height="7.4"/>
		<rect x="77.1" y="57.4" class="color1" width="12.7" height="7.4"/>
		<rect x="89.9" y="57.4" class="color1" width="12.7" height="7.4"/>
		<rect x="102.6" y="57.4" class="color5" width="12.7" height="7.4"/>
		<rect x="115.4" y="57.4" class="color1" width="12.7" height="7.4"/>
		<rect x="128.1" y="57.4" class="color4" width="12.7" height="7.4"/>
		<rect x="140.8" y="57.4" class="color5" width="12.7" height="7.4"/>
		<rect x="26.2" y="64.7" class="color4" width="12.7" height="7.4"/>
		<rect x="38.9" y="64.7" class="color4" width="12.7" height="7.4"/>
		<rect x="51.6" y="64.7" class="color4" width="12.7" height="7.4"/>
		<rect x="64.4" y="64.7" class="color2" width="12.7" height="7.4"/>
		<rect x="77.1" y="64.7" class="color2" width="12.7" height="7.4"/>
		<rect x="89.9" y="64.7" class="color4" width="12.7" height="7.4"/>
		<rect x="102.6" y="64.7" class="color2" width="12.7" height="7.4"/>
		<rect x="115.4" y="64.7" class="color4" width="12.7" height="7.4"/>
		<rect x="128.1" y="64.7" class="color4" width="12.7" height="7.4"/>
		<rect x="140.8" y="64.7" class="color5" width="12.7" height="7.4"/>
		<rect x="26.2" y="72.1" class="color5" width="12.7" height="7.4"/>
		<rect x="38.9" y="72.1" class="color1" width="12.7" height="7.4"/>
		<rect x="51.6" y="72.1" class="color4" width="12.7" height="7.4"/>
		<rect x="64.4" y="72.1" class="color4" width="12.7" height="7.4"/>
		<rect x="77.1" y="72.1" class="color1" width="12.7" height="7.4"/>
		<rect x="89.9" y="72.1" class="color4" width="12.7" height="7.4"/>
		<rect x="102.6" y="72.1" class="color2" width="12.7" height="7.4"/>
		<rect x="115.4" y="72.1" class="color2" width="12.7" height="7.4"/>
		<rect x="128.1" y="72.1" class="color1" width="12.7" height="7.4"/>
		<rect x="140.8" y="72.1" class="color2" width="12.7" height="7.4"/>
		<rect x="26.2" y="79.4" class="color5" width="12.7" height="7.4"/>
		<rect x="38.9" y="79.4" class="color1" width="12.7" height="7.4"/>
		<rect x="51.6" y="79.4" class="color1" width="12.7" height="7.4"/>
		<rect x="64.4" y="79.4" class="color2" width="12.7" height="7.4"/>
		<rect x="77.1" y="79.4" class="color1" width="12.7" height="7.4"/>
		<rect x="89.9" y="79.4" class="color4" width="12.7" height="7.4"/>
		<rect x="102.6" y="79.4" class="color2" width="12.7" height="7.4"/>
		<rect x="115.4" y="79.4" class="color1" width="12.7" height="7.4"/>
		<rect x="128.1" y="79.4" class="color2" width="12.7" height="7.4"/>
		<rect x="140.8" y="79.4" class="color2" width="12.7" height="7.4"/>
	</g>
	<g>
		<polyline class="dendro" points="156.2,31.6 163,31.6 163,39 156.2,39 		"/>
		<polyline class="dendro" points="156.2,61 159.6,61 159.6,68.4 156.2,68.4 		"/>
		<polyline class="dendro" points="163,35.3 167.3,35.3 167.3,46.3 156.2,46.3 		"/>
		<polyline class="dendro" points="156.2,53.7 171.4,53.7 171.4,40.8 167.3,40.8 		"/>
		<polyline class="dendro" points="156.2,75.8 157.9,75.8 157.9,83.1 156.2,83.1 		"/>
		<polyline class="dendro" points="159.6,64.7 164.7,64.7 164.7,79.4 157.9,79.4 		"/>
		<polyline class="dendro" points="165.5,72.1 173.8,72.1 173.8,47.2 171.4,47.2 		"/>
	</g>
	<g>
		<polyline class="dendro" points="45.5,25.6 45.5,21.7 58.2,21.7 58.2,25.6 		"/>
		<polyline class="dendro" points="83.7,25.6 83.7,21.7 96.5,21.7 96.5,25.6 		"/>
		<polyline class="dendro" points="109.2,25.6 109.2,21.7 121.9,21.7 121.9,25.6 		"/>
		<polyline class="dendro" points="134.7,25.6 134.7,18.5 115.6,18.5 115.6,21.1 		"/>
		<polyline class="dendro" points="147,25.6 147,15.8 125.1,15.8 125.1,18.5 		"/>
		<polyline class="dendro" points="71,25.6 71,17 90.1,17 90.1,21.3 		"/>
		<polyline class="dendro" points="32.8,25.6 32.8,18.5 51.9,18.5 51.9,21.3 		"/>
		<polyline class="dendro" points="42.3,18 42.3,15.8 80.5,15.8 80.5,16.9 		"/>
		<polyline class="dendro" points="136.1,15.8 136.1,13.2 61.4,13.2 61.4,15.8 		"/>
	</g>
</g>
</svg>
