<?xml version="1.0" encoding="utf-8"?>
<!-- Generator: Adobe Illustrator 24.1.3, SVG Export Plug-In . SVG Version: 6.00 Build 0)  -->
<svg version="1.1" id="Layer_1" xmlns="http://www.w3.org/2000/svg" xmlns:xlink="http://www.w3.org/1999/xlink" x="0px" y="0px"
	 viewBox="0 0 100 100" style="enable-background:new 0 0 100 100;" xml:space="preserve">
<style type="text/css">
	.chrom{fill:none;stroke:#10A27B;stroke-width:10;stroke-linecap:round;stroke-miterlimit:10;}
	.sel{fill:#0B7458;}
</style>
<g>
	<g>
		<path class="chrom" d="M20.4,13.7v17.8c0.7,3,2.3,4.8,3.8,6c1.8,1.5,2.8,1.4,6.3,3.6c2.5,1.6,4.6,2.9,6.1,5c1.4,1.9,1.7,3.8,1.8,5
			v34.6"/>
		<path class="chrom" d="M38.5,13.7v18.4c-0.7,3-2.3,4.8-3.8,6c-1.8,1.5-2.8,1.4-6.3,3.6c-2.5,1.6-4.6,2.9-6.1,5
			c-1.4,1.9-1.7,3.8-1.8,5v34.6"/>
	</g>
	<rect x="34.6" y="21.7" class="sel" width="7.9" height="2.9"/>
	<rect x="16.5" y="21.7" class="sel" width="7.9" height="2.9"/>
	<rect x="34.6" y="15.6" class="sel" width="7.9" height="1"/>
	<rect x="16.5" y="15.6" class="sel" width="7.9" height="1"/>
	<rect x="34.6" y="57.8" class="sel" width="7.9" height="10.7"/>
	<rect x="16.5" y="57.8" class="sel" width="7.9" height="10.7"/>
	<rect x="34.6" y="70.2" class="sel" width="7.9" height="1.3"/>
	<rect x="16.5" y="70.2" class="sel" width="7.9" height="1.3"/>
	<rect x="34.6" y="81.3" class="sel" width="7.9" height="1.3"/>
	<rect x="16.5" y="81.3" class="sel" width="7.9" height="1.3"/>
</g>
<g>
	<g>
		<path class="chrom" d="M61.4,52v7.3c0.7,3,2.3,4.8,3.8,6c1.8,1.5,2.8,1.4,6.3,3.6c2.5,1.6,4.6,2.9,6.1,5c1.4,1.9,1.7,3.8,1.8,5v7.4"
			/>
		<path class="chrom" d="M79.4,52v7.9c-0.7,3-2.3,4.8-3.8,6c-1.8,1.5-2.8,1.4-6.3,3.6c-2.5,1.6-4.6,2.9-6.1,5c-1.4,1.9-1.7,3.8-1.8,5
			v6.8"/>
	</g>
	<rect x="57.4" y="55.3" class="sel" width="7.9" height="2.9"/>
	<rect x="75.5" y="55.3" class="sel" width="7.9" height="2.9"/>
	<rect x="75.5" y="79" class="sel" width="7.9" height="4.1"/>
	<rect x="57.4" y="79" class="sel" width="7.9" height="4.1"/>
	<rect x="75.5" y="84.2" class="sel" width="7.9" height="1.1"/>
	<rect x="57.4" y="84.2" class="sel" width="7.9" height="1.1"/>
</g>
</svg>
