<?xml version="1.0" encoding="utf-8"?>
<!-- Generator: Adobe Illustrator 24.1.3, SVG Export Plug-In . SVG Version: 6.00 Build 0)  -->
<svg version="1.1" id="Layer_1" xmlns="http://www.w3.org/2000/svg" xmlns:xlink="http://www.w3.org/1999/xlink" x="0px" y="0px"
	 viewBox="0 0 100 100" style="enable-background:new 0 0 100 100;" xml:space="preserve">
<style type="text/css">
	.sampletube{fill:none;stroke:#10A27B;stroke-width:3;stroke-linecap:round;stroke-miterlimit:10;}
	.fluid{fill:#10A27B;}
	.cap{fill:#10A27B;stroke:#10A27B;stroke-width:5;stroke-linejoin:round;stroke-miterlimit:10;}
</style>
<g>
	<path class="sampletube" d="M57,20.2v57.6c0,4.7-3.1,8.5-6.8,8.7c-3.9,0.2-7.4-4-7.3-9.2V20.2"/>
	<path class="fluid" d="M53.9,38.6v38.5c0,3.2-1.7,5.7-3.7,5.8c-2.2,0.1-4.1-2.7-4-6.1V38.6"/>
	<rect x="40.6" y="13.5" class="cap" width="18.8" height="3.9"/>
</g>
<g>
	<path class="sampletube" d="M83.9,20.2v57.6c0,4.7-3.1,8.5-6.8,8.7c-3.9,0.2-7.4-4-7.3-9.2V20.2"/>
	<path class="fluid" d="M80.7,38.6v38.5c0,3.2-1.7,5.7-3.7,5.8c-2.2,0.1-4.1-2.7-4-6.1V38.6"/>
	<rect x="67.4" y="13.5" class="cap" width="18.8" height="3.9"/>
</g>
<g>
	<path class="sampletube" d="M29.5,20.2v57.6c0,4.7-3.1,8.5-6.8,8.7c-3.9,0.2-7.4-4-7.3-9.2V20.2"/>
	<path class="fluid" d="M26.4,38.6v38.5c0,3.2-1.7,5.7-3.7,5.8c-2.2,0.1-4.1-2.7-4-6.1V38.6"/>
	<rect x="13.1" y="13.5" class="cap" width="18.8" height="3.9"/>
</g>
</svg>
